<svg xmlns="http://www.w3.org/2000/svg" width="1640" height="534.22" viewBox="0 0 1640 534.22"><g transform="translate(-535 -5303.896)"><g transform="translate(535 5303.895)"><line x2="1640" transform="translate(0 265.281)" fill="none" stroke="#14183c" stroke-miterlimit="10" stroke-width="2"/><g transform="translate(184.444 62.092)"><circle cx="37.302" cy="37.302" r="37.302" transform="translate(0 229.38) rotate(-74.767)" fill="#14183c"/><line y1="162.724" transform="translate(45.792 3.163)" fill="none" stroke="#14183c" stroke-miterlimit="10" stroke-width="0.25"/><path d="M124.017,194.239a3.163,3.163,0,1,1-3.162-3.162A3.163,3.163,0,0,1,124.017,194.239Z" transform="translate(-75.061 -191.077)" fill="#14183c"/></g><text transform="translate(168.314 24)" fill="#14183c" font-size="24" font-family="Montserrat-ExtraBold, Montserrat" font-weight="800" letter-spacing="0.025em"><tspan x="0" y="0">Research &amp; Strategy</tspan></text><text transform="translate(165.098 90.322)" fill="#14183c" font-size="37" font-family="Montserrat-ExtraBold, Montserrat" font-weight="800"><tspan x="0" y="0">01</tspan></text><text transform="translate(255.021 60.836)" fill="#616161" font-size="16" font-family="Montserrat-Regular, Montserrat"><tspan x="0" y="15">We understand </tspan><tspan x="0" y="30">real-world users’ </tspan><tspan x="0" y="45">needs and gather </tspan><tspan x="0" y="60">insights that are the </tspan><tspan x="0" y="75">basis for formulating </tspan><tspan x="0" y="90">the strategy for your </tspan><tspan x="0" y="105">products.</tspan></text><path d="M131.241,292.193a11.388,11.388,0,1,0-2.31,17.874l7,7a2.883,2.883,0,0,0,4.079-4.077l-7-7A11.384,11.384,0,0,0,131.241,292.193Zm-3.6,12.51a6.3,6.3,0,1,1,0-8.914A6.3,6.3,0,0,1,127.644,304.7Z" transform="translate(103.908 -38.105)" fill="none" stroke="#fff" stroke-miterlimit="10" stroke-width="0.75"/><g transform="translate(439.858 222.653)"><line y1="174.301" transform="translate(42.628 76.837)" fill="none" stroke="#14183c" stroke-miterlimit="10" stroke-width="0.25"/><path d="M254.757,403.907a3.164,3.164,0,1,1-3.164-3.164A3.164,3.164,0,0,1,254.757,403.907Z" transform="translate(-208.965 -156.772)" fill="#14183c"/><circle cx="37.302" cy="37.302" r="37.302" transform="translate(0 73.704) rotate(-81.092)" fill="#14183c"/></g><text transform="translate(412.786 528.22)" fill="#14183c" font-size="25" font-family="Montserrat-ExtraBold, Montserrat" font-weight="800" letter-spacing="0.025em"><tspan x="0" y="0">Conceptualization</tspan></text><text transform="translate(412.786 471.059)" fill="#14183c" font-size="37" font-family="Montserrat-ExtraBold, Montserrat" font-weight="800"><tspan x="0" y="0">02</tspan></text><text transform="translate(510.427 404.116)" fill="#616161" font-size="16" font-family="Montserrat-Regular, Montserrat"><tspan x="0" y="15">Creating visual </tspan><tspan x="0" y="34">brand identities and </tspan><tspan x="0" y="53">guidelines for digital </tspan><tspan x="0" y="72">touchpoints.</tspan></text><g transform="translate(972.822 212.528)"><line y1="174.301" transform="translate(52.753 86.962)" fill="none" stroke="#14183c" stroke-miterlimit="10" stroke-width="0.25"/><path d="M536.236,404.907a3.164,3.164,0,1,1-3.164-3.164A3.164,3.164,0,0,1,536.236,404.907Z" transform="translate(-480.319 -145.717)" fill="#14183c"/><circle cx="37.302" cy="37.302" r="37.302" transform="translate(0 52.753) rotate(-45)" fill="#14183c"/></g><text transform="translate(951.608 528.22)" fill="#14183c" font-size="25" font-family="Montserrat-ExtraBold, Montserrat" font-weight="800" letter-spacing="0.025em"><tspan x="0" y="0">Design Approach</tspan></text><text transform="translate(951.735 471.059)" fill="#14183c" font-size="37" font-family="Montserrat-ExtraBold, Montserrat" font-weight="800"><tspan x="0" y="0">04</tspan></text><text transform="translate(1049.376 356.439)" fill="#616161" font-size="16" font-family="Montserrat-Regular, Montserrat"><tspan x="0" y="15">From an idea to the </tspan><tspan x="0" y="32">product launch. </tspan><tspan x="0" y="49">Creating solutions to </tspan><tspan x="0" y="66">important and </tspan><tspan x="0" y="83">unexpected </tspan><tspan x="0" y="100">problems through </tspan><tspan x="0" y="117">design.</tspan></text><g transform="translate(1259.817 62.177)"><path d="M727.558,314.1c-.837,49.034-73.773,49.026-74.6,0C653.791,265.069,726.729,265.077,727.558,314.1Z" transform="translate(-652.954 -110.997)" fill="#14183c"/><line y1="162.724" transform="translate(37.303 3.079)" fill="none" stroke="#14183c" stroke-miterlimit="10" stroke-width="0.25"/><path d="M676.975,194.2c.06,4.106-6.388,4.106-6.327,0C670.588,190.095,677.036,190.095,676.975,194.2Z" transform="translate(-636.509 -191.121)" fill="#14183c"/></g><text transform="translate(1224.989 24)" fill="#14183c" font-size="25" font-family="Montserrat-ExtraBold, Montserrat" font-weight="800" letter-spacing="0.025em"><tspan x="0" y="0">Launch</tspan></text><text transform="translate(1223.059 90.322)" fill="#14183c" font-size="37" font-family="Montserrat-ExtraBold, Montserrat" font-weight="800"><tspan x="0" y="0">05</tspan></text><g transform="translate(711.265 62.092)"><circle cx="37.302" cy="37.302" r="37.302" transform="translate(0 234.076) rotate(-80.838)" fill="#14183c"/><line y1="162.724" transform="translate(42.765 3.163)" fill="none" stroke="#14183c" stroke-miterlimit="10" stroke-width="0.25"/><path d="M395.642,194.239a3.164,3.164,0,1,1-3.164-3.162A3.164,3.164,0,0,1,395.642,194.239Z" transform="translate(-349.432 -191.077)" fill="#14183c"/></g><text transform="translate(686.167 24)" fill="#14183c" font-size="25" font-family="Montserrat-ExtraBold, Montserrat" font-weight="800" letter-spacing="0.025em"><tspan x="0" y="0">Detail Design</tspan></text><text transform="translate(684.11 90.322)" fill="#14183c" font-size="37" font-family="Montserrat-ExtraBold, Montserrat" font-weight="800"><tspan x="0" y="0">03</tspan></text><text transform="translate(775.962 60.837)" fill="#616161" font-size="16" font-family="Montserrat-Regular, Montserrat"><tspan x="0" y="15">Transforming an </tspan><tspan x="0" y="34">idea into a user story </tspan><tspan x="0" y="53">and designing the </tspan><tspan x="0" y="72">assets needed for </tspan><tspan x="0" y="91">the development of </tspan><tspan x="0" y="110">well-crafted </tspan><tspan x="0" y="129">products.</tspan></text><g transform="translate(463.526 243.181)"><path d="M256.5,326.942q-2.561,0-5.126,0c-.739,0-.9-.208-.932-.961-.071-2-.118-4-.282-5.985a10.973,10.973,0,0,0-1.468-4.4c-1.121-2.026-2.338-4-3.525-5.989a18.818,18.818,0,0,1-2.383-5.275,13.547,13.547,0,0,1,2.938-12.289,14.139,14.139,0,0,1,24.951,9.73,13.783,13.783,0,0,1-1.914,6.2c-1.092,1.922-2.271,3.8-3.4,5.7a17.29,17.29,0,0,0-2.209,5,28.7,28.7,0,0,0-.5,4.029c-.079,1.092-.037,2.2-.033,3.294,0,.727-.2.947-.953.949Q259.085,326.945,256.5,326.942Zm3.917-9.771c.513,0,.967-.012,1.42,0,.237.008.332-.095.428-.3.588-1.254,1.136-2.533,1.814-3.739,1.106-1.966,2.34-3.859,3.448-5.823a11.837,11.837,0,0,0,1.567-8.447c-1.069-5.069-4.079-8.52-9.045-9.944a12.1,12.1,0,0,0-13.189,3.961,11.935,11.935,0,0,0-2.8,10.787,17.652,17.652,0,0,0,2.485,5.52,45.647,45.647,0,0,1,4.274,7.758.4.4,0,0,0,.291.214c.5.021,1,.01,1.542.01v-.542q0-4.049,0-8.1c0-.563.179-.837.577-.893.417-.062.646.12.843.65a4.581,4.581,0,0,0,1.353,2.134,1.573,1.573,0,0,0,2.2-.008,5.872,5.872,0,0,0,.974-1.248,6.214,6.214,0,0,0,.444-1.052.7.7,0,0,1,1.366.235c.008.152,0,.3,0,.457v8.368Zm.78,5.329h-9.365v3.016h9.365Zm-7.123-11.389v6.028h4.9V311.1a3.461,3.461,0,0,1-2.443,1.142A3.579,3.579,0,0,1,254.07,311.111Zm7.583,7.49h-10.28l.332,2.456h9.614Z" transform="translate(-238.266 -283.019)" fill="#fff"/><path d="M254.238,288.913c-.629-.01-.961-.5-.731-.971a13.577,13.577,0,0,1,.845-1.462.63.63,0,0,1,.891-.193.621.621,0,0,1,.289.862,13.63,13.63,0,0,1-.868,1.5C254.562,288.8,254.325,288.863,254.238,288.913Z" transform="translate(-227.981 -283.775)" fill="#fff"/><path d="M242.094,289.331a3.665,3.665,0,0,1,.465.164c.438.245.876.49,1.3.754a.671.671,0,0,1,.27.942.662.662,0,0,1-.943.26q-.706-.373-1.381-.8a.587.587,0,0,1-.247-.795A2.362,2.362,0,0,1,242.094,289.331Z" transform="translate(-239.083 -280.847)" fill="#fff"/><path d="M249.355,286.4c0-.274-.017-.55,0-.822a.641.641,0,0,1,.648-.641.657.657,0,0,1,.716.623,16.506,16.506,0,0,1,0,1.692.645.645,0,0,1-.724.608.625.625,0,0,1-.644-.637c-.019-.272,0-.548,0-.824Z" transform="translate(-231.782 -284.934)" fill="#fff"/><path d="M247.011,288.257c-.112.129-.241.388-.451.5a.593.593,0,0,1-.808-.206,15.274,15.274,0,0,1-.845-1.461.633.633,0,0,1,.249-.878.6.6,0,0,1,.862.12c.351.513.635,1.071.942,1.613A1.331,1.331,0,0,1,247.011,288.257Z" transform="translate(-235.985 -283.86)" fill="#fff"/><path d="M259.123,290.355a1.486,1.486,0,0,1-.34.446,13.2,13.2,0,0,1-1.3.756.692.692,0,0,1-.99-.237.715.715,0,0,1,.318-.972c.417-.251.834-.5,1.266-.725C258.6,289.354,259.113,289.651,259.123,290.355Z" transform="translate(-225.217 -280.668)" fill="#fff"/><path d="M258.932,295.419c-.274,0-.55.015-.824,0a.646.646,0,0,1-.644-.685.654.654,0,0,1,.654-.683c.533-.019,1.067-.017,1.6,0a.687.687,0,0,1-.008,1.374c-.137.01-.274,0-.413,0h-.365Z" transform="translate(-224.236 -276.477)" fill="#fff"/><path d="M241.714,295.24c-.274,0-.548.013-.82,0a.67.67,0,0,1-.652-.681.663.663,0,0,1,.644-.689c.544-.023,1.092-.027,1.638,0a.664.664,0,0,1,.654.683.676.676,0,0,1-.691.691c-.259.017-.517,0-.774,0Z" transform="translate(-240.242 -276.65)" fill="#fff"/></g><g transform="translate(732.886 243.708)"><path d="M408.784,311.113c1.887,1.885,3.687,3.677,5.476,5.483a1.737,1.737,0,0,1,.405.673c.876,2.83,1.752,5.661,2.585,8.5a9.477,9.477,0,0,1,.17,1.738,9.526,9.526,0,0,1-1.87-.164c-2.815-.826-5.617-1.708-8.416-2.583a1.6,1.6,0,0,1-.637-.386q-3.432-3.406-6.846-6.832c-.108-.11-.222-.212-.34-.324l-1.053,1.111c.455.448.961.92,1.435,1.42a2.125,2.125,0,0,1-.849,3.525,2.173,2.173,0,0,1-2.109-.457,2.174,2.174,0,0,1-3.65.44c-.3.341-.556.7-.866,1a6.454,6.454,0,0,1-10.766-2.962,6.245,6.245,0,0,1,1.59-6.141c.3-.32.639-.6.986-.93a2.266,2.266,0,0,1-.733-1.964,2.161,2.161,0,0,1,1.2-1.636c-.064-.106-.118-.2-.178-.291a2.12,2.12,0,0,1,3.187-2.751c.521.48.992,1.015,1.468,1.511l1.086-1.119c-.064-.066-.176-.189-.293-.307q-4.246-4.249-8.5-8.5a4,4,0,0,1,0-6.116c.614-.614,1.221-1.231,1.841-1.837a3.96,3.96,0,0,1,5.782.006q3.476,3.456,6.932,6.927c.106.108.22.212.382.367a12.878,12.878,0,0,1,5.441-10.861,12.375,12.375,0,0,1,8.5-2.412,12.935,12.935,0,0,1,11.984,12.6,12.529,12.529,0,0,1-1.692,6.682,13,13,0,0,1-11.657,6.581Zm-16.628.99,13.407-15.312c-.286,0-.455.008-.625,0a2.726,2.726,0,1,1,2.879-2.765c.01.463,0,.924,0,1.416h4.1v3.488c2.391-.268,3.695.444,4.034,2.167a2.735,2.735,0,0,1-1.98,3.106,2.65,2.65,0,0,1-1.98-.232,2.844,2.844,0,0,1-1.474-2.248l-15.262,13.438,2.1,2.115a3.262,3.262,0,0,1,.286-.365q2.648-2.657,5.3-5.3a6.6,6.6,0,0,1,5.105-1.918,17.834,17.834,0,0,0,2.338-.021,11.585,11.585,0,1,0-12.773-10.616,6.6,6.6,0,0,1-1.995,5.447q-2.628,2.613-5.242,5.24c-.108.108-.21.222-.289.307Zm2.072,2.13a.129.129,0,0,0,.035-.021q8.06-7.088,16.116-14.179a.456.456,0,0,0,.16-.276c.012-.974.008-1.951.008-2.96-1.052,0-2.055-.006-3.06.01-.1,0-.216.112-.291.2q-5.577,6.358-11.146,12.719c-.988,1.129-1.976,2.257-2.946,3.369Zm-2.132,8.208-7.195-7.2c-2.747,2.425-3.1,5.686-.828,7.988S389.636,325.2,392.1,322.441Zm-1.968-28.119a3.869,3.869,0,0,1-.324-.259c-.687-.679-1.351-1.38-2.057-2.036a2.6,2.6,0,0,0-3.494,0c-.807.756-1.588,1.542-2.346,2.346a2.45,2.45,0,0,0-.15,3.272c.787.9,1.719,1.677,2.56,2.479Zm10.245,21.893,6.755,6.755,2.3-2.3-6.749-6.757Zm10.135,3.365,2.418-2.406c-1.964-1.96-3.959-3.953-5.96-5.941a.339.339,0,0,0-.257-.1,4.984,4.984,0,0,0-2.989,1.655Zm-24.457-11.32a3.353,3.353,0,0,0-.652.608c-.206.338-.031.648.232.911q5.965,5.962,11.931,11.926a.77.77,0,1,0,1.081-1.073c-.538-.546-1.082-1.086-1.626-1.628Q391.911,313.9,386.8,308.8A5.971,5.971,0,0,0,386.051,308.26Zm22.474,15.522,7.43,2.281-2.286-7.424Zm-12.871-1.839a5.857,5.857,0,0,0-.519-.724q-4.5-4.512-9-9.008a1.761,1.761,0,0,0-.353-.3.7.7,0,0,0-.9.108.705.705,0,0,0-.125.932,1.884,1.884,0,0,0,.309.349q4.486,4.489,8.976,8.976c.11.11.218.274.349.3a1.3,1.3,0,0,0,.756.006C395.347,322.477,395.463,322.194,395.654,321.943Zm-8.217-18.708,3.675,3.674,2.271-2.281-3.67-3.67Zm7.137.374a5.123,5.123,0,0,0,1.6-2.78.519.519,0,0,0-.154-.56c-.891-.874-1.769-1.762-2.653-2.643a1.306,1.306,0,0,0-.166-.127l-2.375,2.369Zm-8.285-1.378,5.771-5.767-.922-.94-5.781,5.781Zm20.158-6.807c0-.54.035-1.036-.008-1.524a1.352,1.352,0,0,0-1.414-1.194,1.376,1.376,0,0,0-1.295,1.328,1.353,1.353,0,0,0,1.225,1.385C405.432,295.454,405.915,295.425,406.447,295.425Zm5.468,5.746c0,.17-.012.341,0,.511a1.359,1.359,0,0,0,2.593.453,1.35,1.35,0,0,0-.372-1.617,1.735,1.735,0,0,0-1.244-.316C412.05,300.218,411.911,300.351,411.915,301.171Z" transform="translate(-379.85 -285.207)" fill="#fff"/><path d="M404.819,293.907l-1.244.376a9.087,9.087,0,0,0-8.5-6.359v-1.27A10.11,10.11,0,0,1,404.819,293.907Z" transform="translate(-365.704 -283.875)" fill="#fff"/><path d="M400.958,291.162l.106,1.441h-1.356l-.1-1.235Z" transform="translate(-361.488 -279.672)" fill="#fff"/></g><g transform="translate(1001.644 239.281)"><path d="M539.807,299.7c.585.511,1.125,1.015,1.7,1.47.394.313.56.621.183,1.03q-1.3,1.409-2.616,2.8c-.4.417-.756.324-1.123-.1-.479-.556-1.005-1.073-1.447-1.54a1.409,1.409,0,0,0-.232.013c-.639.291-1.516.426-1.842.922-.315.477-.1,1.331-.037,2.014.068.754-.152,1.14-.974,1.14-1.088,0-2.175.1-3.261.1-.627,0-1.046-.286-.9-1.024a3.026,3.026,0,0,0,.023-.48c.048-1.611-.347-2.092-1.968-2.344a.66.66,0,0,0-.469.154,7.089,7.089,0,0,0-.662.7c-1.221,1.383-1.221,1.385-2.666.166-.172-.145-.33-.3-.49-.463-1.841-1.812-1.854-1.825-.046-3.61a.767.767,0,0,0,.206-1.069,5.058,5.058,0,0,1-.442-.957c-.168-.523-.473-.735-1.011-.581a.916.916,0,0,1-.191.029c-2.3.127-2.142.606-2.377-2.157a16.043,16.043,0,0,1,.023-2.02c.025-.61.3-.963.974-.864.222.031.457-.017.673.031,1.161.262,1.69-.245,2.032-1.351.216-.7.191-1.125-.4-1.513a1.848,1.848,0,0,1-.218-.189c-1.463-1.272-1.476-1.283-.193-2.721.509-.573,1.1-1.075,1.646-1.617.5-.5.973-.577,1.424.066.11.154.29.262.4.421a1.545,1.545,0,0,0,2.391.505,1.244,1.244,0,0,0,.77-1.457c-.162-2.234-.469-1.976,1.9-2.252a14.931,14.931,0,0,1,2.4.048.688.688,0,0,1,.727.889c-.021.158-.023.318-.029.478-.071,1.686-.052,1.642,1.488,2.3a.9.9,0,0,0,1.285-.322,1.514,1.514,0,0,1,.133-.141c1.513-1.663,1.513-1.663,3.2-.089l.139.133c1.846,1.783,1.862,1.8.064,3.6a.818.818,0,0,0-.179,1.16,3.767,3.767,0,0,1,.4.87c.166.588.515.639,1.081.6,2.524-.181,2.232-.608,2.527,2.2a3.668,3.668,0,0,1,.006.386c.019,2.391.019,2.421-2.336,2.362-.675-.017-.994.189-1.148.826A13.32,13.32,0,0,1,539.807,299.7Zm-8.374,1.414a5.926,5.926,0,1,0,.031-11.852,5.926,5.926,0,1,0-.031,11.852Z" transform="translate(-519.145 -282.913)" fill="#fff"/><path d="M545.224,318.044c.311-1.941-.129-4.042,1.364-5.721a1.657,1.657,0,0,0,.4-.644,2.334,2.334,0,0,0-.066-.747c-.245.079-.6.081-.716.249-.874,1.216-1.791,2.41-1.762,4.044.016.926-.135,1.852-.216,2.848h-1.1c-.131-1.273-.291-2.541-.39-3.812-.1-1.345-1.1-2.192-1.738-3.234a.621.621,0,0,0-.573-.091.831.831,0,0,0,.145,1.148,6.2,6.2,0,0,1,1.385,4.362c.006.509.1,1.017.152,1.517-1.181.376-1.64.228-2.028-.864-.32-.9-.463-1.856-.7-2.784a14.564,14.564,0,0,0-2.965-5.759,3.217,3.217,0,0,1-.735-3.2c.241-.772.185-1.426-.82-1.461a8.761,8.761,0,0,1,17.284-2.391,8.571,8.571,0,0,1-1.665,7.517,13.484,13.484,0,0,0-2.95,6.776,6.605,6.605,0,0,1-.361,1.285A1.378,1.378,0,0,1,545.224,318.044Zm3.2-16.491a3.425,3.425,0,0,1,.266-.561c.77-.978.766-1.084-.125-1.985-.2-.206-.415-.405-.614-.614a1.019,1.019,0,0,0-1.659-.046.821.821,0,0,1-.633.181c-.1-.019-.208-.349-.206-.536.014-.83-.421-1.158-1.192-1.154-.386,0-.772-.008-1.158,0-.708.012-1.154.293-1.169,1.081a2.272,2.272,0,0,1-.22.65,2.585,2.585,0,0,1-.7-.3,1,1,0,0,0-1.524.066c-.318.316-.629.643-.949.957a.941.941,0,0,0-.023,1.507c.623.625.392.832-.378.872a.965.965,0,0,0-1.025,1.123,10.116,10.116,0,0,1,0,1.158,1.062,1.062,0,0,0,1.144,1.308c.687.029.841.314.326.807a.993.993,0,0,0,.035,1.646c.278.268.544.548.816.82a1.026,1.026,0,0,0,1.663.052c.133-.135.455-.3.521-.247a.868.868,0,0,1,.311.592c0,.9.523,1.163,1.3,1.163.32,0,.642-.006.963,0,.8.006,1.285-.307,1.262-1.194a.648.648,0,0,1,.253-.517.637.637,0,0,1,.538.178c.664.652,1.241.507,1.808-.124.235-.262.494-.505.751-.749a.961.961,0,0,0,.042-1.572c-.513-.5-.5-.822.313-.857a1.031,1.031,0,0,0,1.119-1.237c-.025-.417-.016-.835,0-1.254a.989.989,0,0,0-.967-1.1C549.065,301.625,548.818,301.6,548.419,301.553Z" transform="translate(-504.541 -271.938)" fill="#fff"/><path d="M540.916,297.87c.6.982,1.719,1.571,1.364,2.867a1.356,1.356,0,0,1-.569.783,1.064,1.064,0,0,0-.577,1.337,1.018,1.018,0,0,0,1.046.963c1.262.145,1.254.212.994,1.437-.021.093-.064.181-.085.276-.475,2.009-.475,2.009-2.429,1.565-1.58,1.028-.641,2.02.22,3.155-.972.59-1.841,1.169-2.767,1.627-.148.073-.677-.332-.833-.621-.374-.691-.731-1.1-1.634-.806-.473.154-.673.28-.749.781-.228,1.536-.255,1.532-1.831,1.221-1.993-.392-1.993-.392-1.451-2.626a5.568,5.568,0,0,1-.519-.376c-.544-.494-1.071-.633-1.642-.025-.714.758-1.264.471-1.721-.309-.129-.22-.293-.421-.426-.639-.831-1.368-.816-1.347.542-2.229a1.077,1.077,0,0,0,.419-.866c-.069-.467.093-1.181-.749-1.216-.224-.01-.446-.058-.67-.083-.7-.077-.914-.477-.77-1.131.069-.313.095-.637.185-.944.577-1.947.422-1.646,2.014-1.283a1.1,1.1,0,0,0,.9-.345c.293-.347.754-.685.341-1.32-.947-1.455-.916-1.474.556-2.406.187-.12.392-.214.575-.34.71-.492,1.252-.386,1.563.451.287.779.768.928,1.567.727.623-.156.695-.511.77-1.007.189-1.242.2-1.241,1.457-1.055.222.033.448.044.666.095,1.63.376,1.613.394,1.3,2.02a1.311,1.311,0,0,0,.417.961c.311.309.685.733,1.233.262C539.974,298.464,540.395,298.227,540.916,297.87Zm-2.265,6.07a3.985,3.985,0,1,0-7.97.083A4.076,4.076,0,0,0,534.666,308,4.013,4.013,0,0,0,538.651,303.94Z" transform="translate(-512.74 -271.357)" fill="#fff"/><path d="M546.588,318.4a15.825,15.825,0,0,1-2.057-.534c-.272-.11-.426-.515-.637-.785.3-.166.633-.513.9-.465,1.354.239,2.692.571,4.029.889.731.174.845.617.446,1.216-.747,1.117-1.476,2.25-2.281,3.324-.162.216-.627.206-.953.3-.035-.359-.2-.776-.075-1.067a8.915,8.915,0,0,1,.934-1.424c-1.642.2-3.243.5-4.854.569a21.569,21.569,0,0,1-22.462-18.439,40.417,40.417,0,0,1-.073-6.137c0-.5.123-1.051.778-.978s.615.641.546,1.133a18.889,18.889,0,0,0,1.3,10.361c3.317,7.612,9.115,11.976,17.434,12.674a43,43,0,0,0,6.506-.386C546.2,318.637,546.334,318.522,546.588,318.4Z" transform="translate(-518.895 -271.81)" fill="#fff"/><path d="M535.443,288.249a16.24,16.24,0,0,1,1.177,1.792c.129.268-.008.668-.025,1.005-.334-.064-.814-.008-.976-.21-.862-1.071-1.665-2.192-2.445-3.324-.37-.536-.214-1,.446-1.16,1.366-.33,2.736-.65,4.117-.9.239-.042.546.289.82.448-.193.278-.326.685-.59.8a10.381,10.381,0,0,1-1.779.465,21.681,21.681,0,0,1,11.445,10.145c.463.872.826,1.8,1.214,2.705.195.459.349,1.032-.316,1.148-.264.046-.793-.372-.913-.687a21.047,21.047,0,0,0-4.166-6.836A20.483,20.483,0,0,0,535.443,288.249Z" transform="translate(-506.288 -280.555)" fill="#fff"/><path d="M539.746,311c.085-.864-.218-1.277-1.109-1.241-.729.029-.753-.505-.623-1.109h5.481v1.013c-.683.311-2.032-.28-1.688,1.337Z" transform="translate(-501.664 -258.996)" fill="#fff"/><path d="M537.966,308.7v-1.3h5.508v1.3Z" transform="translate(-501.652 -260.149)" fill="#fff"/><path d="M537.575,298.492l1.135-1.046c.492.569,1.082,1.1,1.825.494a7.283,7.283,0,0,0,1.048-1.347l-.222-.237h1.464c-.083.872.189,1.621,1.156,1.715a5.632,5.632,0,0,0,1.655-.4l.868.926c-.507.486-1.026,1.119-.361,1.881a6.157,6.157,0,0,0,1.26.884l.21-.193v1.472c-1.868.336-2.259,1.283-1.1,2.661l-1.069,1.038.077-.228a8.292,8.292,0,0,0-1.738-.208c-.938.079-.951.868-.961,1.63h-1.353c-.513-1.978-1.412-2.358-2.726-1.129l-1.046-1.138c.48-.471,1.028-1.092.347-1.858a6.544,6.544,0,0,0-1.26-.886l-.212.2v-1.468C538.428,300.869,538.831,299.9,537.575,298.492Zm4.517,6.3a2.854,2.854,0,1,0-2.894-2.852A2.869,2.869,0,0,0,542.092,304.793Z" transform="translate(-502.946 -270.418)" fill="#fff"/><path d="M540.37,302.016a1.867,1.867,0,1,1,1.9-1.879A1.86,1.86,0,0,1,540.37,302.016Z" transform="translate(-501.21 -268.627)" fill="#fff"/></g><g transform="translate(1277.904 247.306)"><path d="M693.2,298.063a38.1,38.1,0,0,1-3.023,4.276,41.85,41.85,0,0,1-10.872,9.267c-1.8,1.075-3.72,1.953-5.582,2.927a.4.4,0,0,1-.534-.093q-2.127-2.092-4.262-4.175c-.482-.475-.951-.961-1.439-1.43a.319.319,0,0,1-.089-.424c.517-1.071.994-2.163,1.547-3.214a41.656,41.656,0,0,1,11.706-14.015c.945-.72,1.964-1.341,2.946-2.012a.407.407,0,0,1,.608.066q4.092,4.032,8.2,8.048C692.672,297.536,692.933,297.795,693.2,298.063Zm-10.041,4.094a3.126,3.126,0,0,0,3.2-3.116,3.139,3.139,0,1,0-6.278,0A3.131,3.131,0,0,0,683.162,302.157Z" transform="translate(-657.655 -285.223)" fill="#fff"/><path d="M676.222,294.015a51.633,51.633,0,0,0-4.9,8.468c-.26-.2-.484-.378-.7-.556a4.228,4.228,0,0,0-4.087-.7,15.811,15.811,0,0,0-3.764,1.843c-.125.077-.251.152-.376.228-.011.006-.031,0-.066,0a1.634,1.634,0,0,1,.075-.174,25.333,25.333,0,0,1,5.159-6.624,12.643,12.643,0,0,1,4.818-2.715,5.847,5.847,0,0,1,3.02.027C675.65,293.866,675.9,293.934,676.222,294.015Z" transform="translate(-662.328 -281.011)" fill="#fff"/><path d="M671.891,305.1a54.247,54.247,0,0,0,8.433-4.957,4.066,4.066,0,0,1,.255,1.333,9.373,9.373,0,0,1-2.433,6.988,20.294,20.294,0,0,1-4.474,3.955c-.772.529-1.584,1-2.379,1.5a.492.492,0,0,1-.255.079c.046-.077.091-.154.139-.23a17.573,17.573,0,0,0,1.931-3.888,4.3,4.3,0,0,0-.911-4.416C672.1,305.351,672.01,305.241,671.891,305.1Z" transform="translate(-654.233 -274.923)" fill="#fff"/><path d="M678.09,288.751a28.546,28.546,0,0,1,8.771-1.679A32,32,0,0,1,685.144,296l-7.1-7.15Z" transform="translate(-647.718 -287.072)" fill="#fff"/><path d="M685.281,297.411l-8.615-8.557c.355-.191.693-.384,1.042-.548.058-.027.195.054.262.12q1.517,1.47,3.023,2.954c1.576,1.561,3.141,3.13,4.716,4.688a.278.278,0,0,1,.064.4C685.589,296.788,685.427,297.124,685.281,297.411Z" transform="translate(-649.002 -285.929)" fill="#fff"/><path d="M663.675,309.283l-.625-.615,5.389-5.4.614.625Z" transform="translate(-661.657 -272.016)" fill="#fff"/><path d="M666.8,300.52l4.652,4.6c-.355.191-.666.372-.994.519-.064.027-.206-.064-.28-.135-.928-.9-1.852-1.81-2.775-2.717-.353-.349-.7-.706-1.057-1.05a.232.232,0,0,1-.048-.338C666.464,301.134,666.612,300.858,666.8,300.52Z" transform="translate(-658.683 -274.573)" fill="#fff"/><path d="M668.523,303.979l.623.7c-.4.388-.832.795-1.256,1.21-.868.847-1.731,1.7-2.6,2.547-.249.241-.262.237-.515.012-.035-.033-.071-.066-.106-.1-.234-.243-.243-.276-.01-.513q1.846-1.867,3.7-3.726C668.4,304.066,668.45,304.035,668.523,303.979Z" transform="translate(-660.317 -271.358)" fill="#fff"/><path d="M664.1,306.553l-.681-.7a.394.394,0,0,1,.05-.071q1.531-1.511,3.068-3.016c.081-.079.268-.174.311-.141a2.691,2.691,0,0,1,.478.5c.019.025-.083.164-.149.23q-1.27,1.305-2.545,2.6C664.442,306.156,664.27,306.361,664.1,306.553Z" transform="translate(-661.318 -272.623)" fill="#fff"/><path d="M664,305.295c-.2.187-.369.37-.563.525-.06.046-.183.014-.276.014-.014,0-.029-.015-.039-.027l-.394-.5c.183-.2.365-.409.558-.6.019-.021.125.008.164.042C663.628,304.913,663.8,305.088,664,305.295Z" transform="translate(-661.955 -270.691)" fill="#fff"/><path d="M663.641,307.036l-.656.623-.641-.671c.164-.154.34-.336.531-.494a.233.233,0,0,1,.222.01C663.28,306.661,663.444,306.841,663.641,307.036Z" transform="translate(-662.313 -269.043)" fill="#fff"/><path d="M665.1,307.01c-.226.224-.392.39-.558.556a.218.218,0,0,1-.339.013c-.556-.492-.511-.469-.06-.928.258-.266.262-.257.532,0C664.8,306.768,664.943,306.878,665.1,307.01Z" transform="translate(-660.967 -269.058)" fill="#fff"/><path d="M676.4,293.335a1.716,1.716,0,1,1-1.723,1.677A1.733,1.733,0,0,1,676.4,293.335Z" transform="translate(-650.852 -281.251)" fill="#fff"/></g></g></g></svg>